<mxfile host="app.diagrams.net" modified="2022-03-24T09:35:47.146Z" agent="5.0 (Windows NT 10.0; Win64; x64) AppleWebKit/537.36 (KHTML, like Gecko) Chrome/99.0.4844.51 Safari/537.36" etag="hQtNUmEGcL04Y8k9W8XU" version="17.1.3" type="github">
  <diagram id="kZ105ibB84_HRwHr6UzJ" name="Page-1">
    <mxGraphModel dx="1117" dy="574" grid="0" gridSize="10" guides="1" tooltips="1" connect="1" arrows="1" fold="1" page="1" pageScale="1" pageWidth="827" pageHeight="1169" math="0" shadow="0">
      <root>
        <mxCell id="0" />
        <mxCell id="1" parent="0" />
        <mxCell id="asnv2eDRdn1GzaaLwiRC-99" style="edgeStyle=orthogonalEdgeStyle;rounded=0;orthogonalLoop=1;jettySize=auto;html=1;exitX=0.5;exitY=0;exitDx=0;exitDy=0;fontFamily=Times New Roman;shadow=0;" parent="1" source="asnv2eDRdn1GzaaLwiRC-2" edge="1">
          <mxGeometry relative="1" as="geometry">
            <mxPoint x="104.5" y="735" as="targetPoint" />
          </mxGeometry>
        </mxCell>
        <mxCell id="asnv2eDRdn1GzaaLwiRC-2" value="&lt;i&gt;&lt;font face=&quot;Times New Roman&quot;&gt;X&lt;/font&gt;&lt;/i&gt;&lt;sub&gt;1&lt;/sub&gt;" style="rounded=0;whiteSpace=wrap;html=1;strokeColor=#007FFF;shadow=1;" parent="1" vertex="1">
          <mxGeometry x="90" y="775" width="30" height="30" as="geometry" />
        </mxCell>
        <mxCell id="asnv2eDRdn1GzaaLwiRC-100" style="edgeStyle=orthogonalEdgeStyle;rounded=0;orthogonalLoop=1;jettySize=auto;html=1;exitX=0.5;exitY=0;exitDx=0;exitDy=0;entryX=0.5;entryY=1;entryDx=0;entryDy=0;fontFamily=Times New Roman;shadow=0;" parent="1" source="asnv2eDRdn1GzaaLwiRC-3" target="asnv2eDRdn1GzaaLwiRC-17" edge="1">
          <mxGeometry relative="1" as="geometry" />
        </mxCell>
        <mxCell id="asnv2eDRdn1GzaaLwiRC-3" value="&lt;i&gt;&lt;font face=&quot;Times New Roman&quot;&gt;X&lt;/font&gt;&lt;/i&gt;&lt;sub&gt;2&lt;/sub&gt;" style="rounded=0;whiteSpace=wrap;html=1;strokeColor=#007FFF;shadow=1;" parent="1" vertex="1">
          <mxGeometry x="250" y="775" width="30" height="30" as="geometry" />
        </mxCell>
        <mxCell id="asnv2eDRdn1GzaaLwiRC-101" style="edgeStyle=orthogonalEdgeStyle;rounded=0;orthogonalLoop=1;jettySize=auto;html=1;exitX=0.5;exitY=0;exitDx=0;exitDy=0;entryX=0.5;entryY=1;entryDx=0;entryDy=0;fontFamily=Times New Roman;shadow=0;" parent="1" source="asnv2eDRdn1GzaaLwiRC-6" target="asnv2eDRdn1GzaaLwiRC-22" edge="1">
          <mxGeometry relative="1" as="geometry" />
        </mxCell>
        <mxCell id="asnv2eDRdn1GzaaLwiRC-6" value="&lt;font face=&quot;Times New Roman&quot;&gt;&lt;i&gt;X&lt;/i&gt;&lt;/font&gt;&lt;sub&gt;3&lt;/sub&gt;" style="rounded=0;whiteSpace=wrap;html=1;strokeColor=#007FFF;shadow=1;" parent="1" vertex="1">
          <mxGeometry x="410" y="775" width="30" height="30" as="geometry" />
        </mxCell>
        <mxCell id="asnv2eDRdn1GzaaLwiRC-102" style="edgeStyle=orthogonalEdgeStyle;rounded=0;orthogonalLoop=1;jettySize=auto;html=1;exitX=0.5;exitY=0;exitDx=0;exitDy=0;entryX=0.5;entryY=1;entryDx=0;entryDy=0;fontFamily=Times New Roman;shadow=0;" parent="1" source="asnv2eDRdn1GzaaLwiRC-7" target="asnv2eDRdn1GzaaLwiRC-28" edge="1">
          <mxGeometry relative="1" as="geometry" />
        </mxCell>
        <mxCell id="asnv2eDRdn1GzaaLwiRC-7" value="&lt;font face=&quot;Times New Roman&quot;&gt;&lt;i&gt;X&lt;/i&gt;&lt;/font&gt;&lt;sub&gt;n&lt;/sub&gt;" style="rounded=0;whiteSpace=wrap;html=1;strokeColor=#007FFF;shadow=1;" parent="1" vertex="1">
          <mxGeometry x="610" y="775" width="30" height="30" as="geometry" />
        </mxCell>
        <mxCell id="asnv2eDRdn1GzaaLwiRC-15" value="" style="group" parent="1" vertex="1" connectable="0">
          <mxGeometry x="55" y="705" width="100" height="30" as="geometry" />
        </mxCell>
        <mxCell id="asnv2eDRdn1GzaaLwiRC-9" value="" style="rounded=1;whiteSpace=wrap;html=1;strokeColor=#007FFF;shadow=1;" parent="asnv2eDRdn1GzaaLwiRC-15" vertex="1">
          <mxGeometry width="100" height="30" as="geometry" />
        </mxCell>
        <mxCell id="asnv2eDRdn1GzaaLwiRC-10" value="" style="ellipse;whiteSpace=wrap;html=1;aspect=fixed;strokeColor=#007FFF;fillColor=#3399FF;shadow=1;" parent="asnv2eDRdn1GzaaLwiRC-15" vertex="1">
          <mxGeometry x="10" y="5" width="20" height="20" as="geometry" />
        </mxCell>
        <mxCell id="asnv2eDRdn1GzaaLwiRC-11" value="" style="ellipse;whiteSpace=wrap;html=1;aspect=fixed;strokeColor=#007FFF;fillColor=#3399FF;shadow=1;" parent="asnv2eDRdn1GzaaLwiRC-15" vertex="1">
          <mxGeometry x="40" y="5" width="20" height="20" as="geometry" />
        </mxCell>
        <mxCell id="asnv2eDRdn1GzaaLwiRC-12" value="" style="ellipse;whiteSpace=wrap;html=1;aspect=fixed;strokeColor=#007FFF;fillColor=#3399FF;shadow=1;" parent="asnv2eDRdn1GzaaLwiRC-15" vertex="1">
          <mxGeometry x="70" y="5" width="20" height="20" as="geometry" />
        </mxCell>
        <mxCell id="asnv2eDRdn1GzaaLwiRC-16" value="" style="group" parent="1" vertex="1" connectable="0">
          <mxGeometry x="215" y="705" width="100" height="30" as="geometry" />
        </mxCell>
        <mxCell id="asnv2eDRdn1GzaaLwiRC-17" value="" style="rounded=1;whiteSpace=wrap;html=1;strokeColor=#007FFF;shadow=1;" parent="asnv2eDRdn1GzaaLwiRC-16" vertex="1">
          <mxGeometry width="100" height="30" as="geometry" />
        </mxCell>
        <mxCell id="asnv2eDRdn1GzaaLwiRC-18" value="" style="ellipse;whiteSpace=wrap;html=1;aspect=fixed;strokeColor=#007FFF;fillColor=#3399FF;shadow=1;" parent="asnv2eDRdn1GzaaLwiRC-16" vertex="1">
          <mxGeometry x="10" y="5" width="20" height="20" as="geometry" />
        </mxCell>
        <mxCell id="asnv2eDRdn1GzaaLwiRC-19" value="" style="ellipse;whiteSpace=wrap;html=1;aspect=fixed;strokeColor=#007FFF;fillColor=#3399FF;shadow=1;" parent="asnv2eDRdn1GzaaLwiRC-16" vertex="1">
          <mxGeometry x="40" y="5" width="20" height="20" as="geometry" />
        </mxCell>
        <mxCell id="asnv2eDRdn1GzaaLwiRC-20" value="" style="ellipse;whiteSpace=wrap;html=1;aspect=fixed;strokeColor=#007FFF;fillColor=#3399FF;shadow=1;" parent="asnv2eDRdn1GzaaLwiRC-16" vertex="1">
          <mxGeometry x="70" y="5" width="20" height="20" as="geometry" />
        </mxCell>
        <mxCell id="asnv2eDRdn1GzaaLwiRC-21" value="" style="group" parent="1" vertex="1" connectable="0">
          <mxGeometry x="375" y="705" width="100" height="30" as="geometry" />
        </mxCell>
        <mxCell id="asnv2eDRdn1GzaaLwiRC-22" value="" style="rounded=1;whiteSpace=wrap;html=1;strokeColor=#007FFF;shadow=1;" parent="asnv2eDRdn1GzaaLwiRC-21" vertex="1">
          <mxGeometry width="100" height="30" as="geometry" />
        </mxCell>
        <mxCell id="asnv2eDRdn1GzaaLwiRC-23" value="" style="ellipse;whiteSpace=wrap;html=1;aspect=fixed;strokeColor=#007FFF;fillColor=#3399FF;shadow=1;" parent="asnv2eDRdn1GzaaLwiRC-21" vertex="1">
          <mxGeometry x="10" y="5" width="20" height="20" as="geometry" />
        </mxCell>
        <mxCell id="asnv2eDRdn1GzaaLwiRC-24" value="" style="ellipse;whiteSpace=wrap;html=1;aspect=fixed;strokeColor=#007FFF;fillColor=#3399FF;shadow=1;" parent="asnv2eDRdn1GzaaLwiRC-21" vertex="1">
          <mxGeometry x="40" y="5" width="20" height="20" as="geometry" />
        </mxCell>
        <mxCell id="asnv2eDRdn1GzaaLwiRC-25" value="" style="ellipse;whiteSpace=wrap;html=1;aspect=fixed;strokeColor=#007FFF;fillColor=#3399FF;shadow=1;" parent="asnv2eDRdn1GzaaLwiRC-21" vertex="1">
          <mxGeometry x="70" y="5" width="20" height="20" as="geometry" />
        </mxCell>
        <mxCell id="asnv2eDRdn1GzaaLwiRC-143" value="" style="endArrow=none;dashed=1;html=1;rounded=0;shadow=1;fontFamily=Times New Roman;" parent="asnv2eDRdn1GzaaLwiRC-21" edge="1">
          <mxGeometry width="50" height="50" relative="1" as="geometry">
            <mxPoint x="-365" y="56" as="sourcePoint" />
            <mxPoint x="416" y="56" as="targetPoint" />
          </mxGeometry>
        </mxCell>
        <mxCell id="asnv2eDRdn1GzaaLwiRC-27" value="" style="group" parent="1" vertex="1" connectable="0">
          <mxGeometry x="575" y="705" width="100" height="30" as="geometry" />
        </mxCell>
        <mxCell id="asnv2eDRdn1GzaaLwiRC-28" value="" style="rounded=1;whiteSpace=wrap;html=1;strokeColor=#007FFF;shadow=1;" parent="asnv2eDRdn1GzaaLwiRC-27" vertex="1">
          <mxGeometry width="100" height="30" as="geometry" />
        </mxCell>
        <mxCell id="asnv2eDRdn1GzaaLwiRC-29" value="" style="ellipse;whiteSpace=wrap;html=1;aspect=fixed;strokeColor=#007FFF;fillColor=#3399FF;shadow=1;" parent="asnv2eDRdn1GzaaLwiRC-27" vertex="1">
          <mxGeometry x="10" y="5" width="20" height="20" as="geometry" />
        </mxCell>
        <mxCell id="asnv2eDRdn1GzaaLwiRC-30" value="" style="ellipse;whiteSpace=wrap;html=1;aspect=fixed;strokeColor=#007FFF;fillColor=#3399FF;shadow=1;" parent="asnv2eDRdn1GzaaLwiRC-27" vertex="1">
          <mxGeometry x="40" y="5" width="20" height="20" as="geometry" />
        </mxCell>
        <mxCell id="asnv2eDRdn1GzaaLwiRC-31" value="" style="ellipse;whiteSpace=wrap;html=1;aspect=fixed;strokeColor=#007FFF;fillColor=#3399FF;shadow=1;" parent="asnv2eDRdn1GzaaLwiRC-27" vertex="1">
          <mxGeometry x="70" y="5" width="20" height="20" as="geometry" />
        </mxCell>
        <mxCell id="asnv2eDRdn1GzaaLwiRC-37" value="" style="group" parent="1" vertex="1" connectable="0">
          <mxGeometry x="55" y="655" width="100" height="30" as="geometry" />
        </mxCell>
        <mxCell id="asnv2eDRdn1GzaaLwiRC-38" value="" style="rounded=1;whiteSpace=wrap;html=1;strokeColor=#007FFF;shadow=1;" parent="asnv2eDRdn1GzaaLwiRC-37" vertex="1">
          <mxGeometry width="100" height="30" as="geometry" />
        </mxCell>
        <mxCell id="asnv2eDRdn1GzaaLwiRC-39" value="" style="ellipse;whiteSpace=wrap;html=1;aspect=fixed;strokeColor=#007FFF;fillColor=#80FF00;shadow=1;" parent="asnv2eDRdn1GzaaLwiRC-37" vertex="1">
          <mxGeometry x="10" y="5" width="20" height="20" as="geometry" />
        </mxCell>
        <mxCell id="asnv2eDRdn1GzaaLwiRC-40" value="" style="ellipse;whiteSpace=wrap;html=1;aspect=fixed;strokeColor=#007FFF;fillColor=#80FF00;shadow=1;" parent="asnv2eDRdn1GzaaLwiRC-37" vertex="1">
          <mxGeometry x="40" y="5" width="20" height="20" as="geometry" />
        </mxCell>
        <mxCell id="asnv2eDRdn1GzaaLwiRC-41" value="" style="ellipse;whiteSpace=wrap;html=1;aspect=fixed;strokeColor=#007FFF;fillColor=#80FF00;shadow=1;" parent="asnv2eDRdn1GzaaLwiRC-37" vertex="1">
          <mxGeometry x="70" y="5" width="20" height="20" as="geometry" />
        </mxCell>
        <mxCell id="asnv2eDRdn1GzaaLwiRC-42" value="" style="group" parent="1" vertex="1" connectable="0">
          <mxGeometry x="215" y="655" width="100" height="30" as="geometry" />
        </mxCell>
        <mxCell id="asnv2eDRdn1GzaaLwiRC-43" value="" style="rounded=1;whiteSpace=wrap;html=1;strokeColor=#007FFF;shadow=1;" parent="asnv2eDRdn1GzaaLwiRC-42" vertex="1">
          <mxGeometry width="100" height="30" as="geometry" />
        </mxCell>
        <mxCell id="asnv2eDRdn1GzaaLwiRC-44" value="" style="ellipse;whiteSpace=wrap;html=1;aspect=fixed;strokeColor=#007FFF;fillColor=#80FF00;shadow=1;" parent="asnv2eDRdn1GzaaLwiRC-42" vertex="1">
          <mxGeometry x="10" y="5" width="20" height="20" as="geometry" />
        </mxCell>
        <mxCell id="asnv2eDRdn1GzaaLwiRC-45" value="" style="ellipse;whiteSpace=wrap;html=1;aspect=fixed;strokeColor=#007FFF;fillColor=#80FF00;shadow=1;" parent="asnv2eDRdn1GzaaLwiRC-42" vertex="1">
          <mxGeometry x="40" y="5" width="20" height="20" as="geometry" />
        </mxCell>
        <mxCell id="asnv2eDRdn1GzaaLwiRC-46" value="" style="ellipse;whiteSpace=wrap;html=1;aspect=fixed;strokeColor=#007FFF;fillColor=#80FF00;shadow=1;" parent="asnv2eDRdn1GzaaLwiRC-42" vertex="1">
          <mxGeometry x="70" y="5" width="20" height="20" as="geometry" />
        </mxCell>
        <mxCell id="asnv2eDRdn1GzaaLwiRC-47" value="" style="group" parent="1" vertex="1" connectable="0">
          <mxGeometry x="375" y="655" width="100" height="30" as="geometry" />
        </mxCell>
        <mxCell id="asnv2eDRdn1GzaaLwiRC-48" value="" style="rounded=1;whiteSpace=wrap;html=1;strokeColor=#007FFF;shadow=1;" parent="asnv2eDRdn1GzaaLwiRC-47" vertex="1">
          <mxGeometry width="100" height="30" as="geometry" />
        </mxCell>
        <mxCell id="asnv2eDRdn1GzaaLwiRC-49" value="" style="ellipse;whiteSpace=wrap;html=1;aspect=fixed;strokeColor=#007FFF;fillColor=#80FF00;shadow=1;" parent="asnv2eDRdn1GzaaLwiRC-47" vertex="1">
          <mxGeometry x="10" y="5" width="20" height="20" as="geometry" />
        </mxCell>
        <mxCell id="asnv2eDRdn1GzaaLwiRC-50" value="" style="ellipse;whiteSpace=wrap;html=1;aspect=fixed;strokeColor=#007FFF;fillColor=#80FF00;shadow=1;" parent="asnv2eDRdn1GzaaLwiRC-47" vertex="1">
          <mxGeometry x="40" y="5" width="20" height="20" as="geometry" />
        </mxCell>
        <mxCell id="asnv2eDRdn1GzaaLwiRC-51" value="" style="ellipse;whiteSpace=wrap;html=1;aspect=fixed;strokeColor=#007FFF;fillColor=#80FF00;shadow=1;" parent="asnv2eDRdn1GzaaLwiRC-47" vertex="1">
          <mxGeometry x="70" y="5" width="20" height="20" as="geometry" />
        </mxCell>
        <mxCell id="asnv2eDRdn1GzaaLwiRC-52" value="" style="group" parent="1" vertex="1" connectable="0">
          <mxGeometry x="575" y="655" width="100" height="30" as="geometry" />
        </mxCell>
        <mxCell id="asnv2eDRdn1GzaaLwiRC-53" value="" style="rounded=1;whiteSpace=wrap;html=1;strokeColor=#007FFF;shadow=1;" parent="asnv2eDRdn1GzaaLwiRC-52" vertex="1">
          <mxGeometry width="100" height="30" as="geometry" />
        </mxCell>
        <mxCell id="asnv2eDRdn1GzaaLwiRC-54" value="" style="ellipse;whiteSpace=wrap;html=1;aspect=fixed;strokeColor=#007FFF;fillColor=#80FF00;shadow=1;" parent="asnv2eDRdn1GzaaLwiRC-52" vertex="1">
          <mxGeometry x="10" y="5" width="20" height="20" as="geometry" />
        </mxCell>
        <mxCell id="asnv2eDRdn1GzaaLwiRC-55" value="" style="ellipse;whiteSpace=wrap;html=1;aspect=fixed;strokeColor=#007FFF;fillColor=#80FF00;shadow=1;" parent="asnv2eDRdn1GzaaLwiRC-52" vertex="1">
          <mxGeometry x="40" y="5" width="20" height="20" as="geometry" />
        </mxCell>
        <mxCell id="asnv2eDRdn1GzaaLwiRC-56" value="" style="ellipse;whiteSpace=wrap;html=1;aspect=fixed;strokeColor=#007FFF;fillColor=#80FF00;shadow=1;" parent="asnv2eDRdn1GzaaLwiRC-52" vertex="1">
          <mxGeometry x="70" y="5" width="20" height="20" as="geometry" />
        </mxCell>
        <mxCell id="asnv2eDRdn1GzaaLwiRC-95" style="edgeStyle=orthogonalEdgeStyle;rounded=0;orthogonalLoop=1;jettySize=auto;html=1;exitX=0.5;exitY=0;exitDx=0;exitDy=0;entryX=0.5;entryY=1;entryDx=0;entryDy=0;fontFamily=Times New Roman;" parent="1" source="asnv2eDRdn1GzaaLwiRC-63" target="asnv2eDRdn1GzaaLwiRC-67" edge="1">
          <mxGeometry relative="1" as="geometry" />
        </mxCell>
        <mxCell id="asnv2eDRdn1GzaaLwiRC-111" style="edgeStyle=orthogonalEdgeStyle;rounded=0;orthogonalLoop=1;jettySize=auto;html=1;exitX=1;exitY=0.5;exitDx=0;exitDy=0;entryX=0.5;entryY=1;entryDx=0;entryDy=0;fontFamily=Times New Roman;" parent="1" source="asnv2eDRdn1GzaaLwiRC-63" target="asnv2eDRdn1GzaaLwiRC-68" edge="1">
          <mxGeometry relative="1" as="geometry" />
        </mxCell>
        <mxCell id="asnv2eDRdn1GzaaLwiRC-63" value="&lt;i style=&quot;font-family: &amp;#34;times new roman&amp;#34;&quot;&gt;y&lt;/i&gt;&lt;span style=&quot;font-family: &amp;#34;times new roman&amp;#34; ; font-size: 8.33333px&quot;&gt;&lt;sub&gt;1&lt;/sub&gt;&lt;/span&gt;" style="ellipse;whiteSpace=wrap;html=1;aspect=fixed;strokeColor=#007FFF;fillColor=#FFFF33;shadow=1;" parent="1" vertex="1">
          <mxGeometry x="90" y="575" width="30" height="30" as="geometry" />
        </mxCell>
        <mxCell id="asnv2eDRdn1GzaaLwiRC-114" style="edgeStyle=orthogonalEdgeStyle;rounded=0;orthogonalLoop=1;jettySize=auto;html=1;exitX=1;exitY=0.5;exitDx=0;exitDy=0;entryX=0.5;entryY=1;entryDx=0;entryDy=0;fontFamily=Times New Roman;" parent="1" source="asnv2eDRdn1GzaaLwiRC-64" target="asnv2eDRdn1GzaaLwiRC-72" edge="1">
          <mxGeometry relative="1" as="geometry" />
        </mxCell>
        <mxCell id="asnv2eDRdn1GzaaLwiRC-115" style="edgeStyle=orthogonalEdgeStyle;rounded=0;orthogonalLoop=1;jettySize=auto;html=1;exitX=0.5;exitY=0;exitDx=0;exitDy=0;entryX=0.5;entryY=1;entryDx=0;entryDy=0;fontFamily=Times New Roman;" parent="1" source="asnv2eDRdn1GzaaLwiRC-64" target="asnv2eDRdn1GzaaLwiRC-69" edge="1">
          <mxGeometry relative="1" as="geometry" />
        </mxCell>
        <mxCell id="asnv2eDRdn1GzaaLwiRC-64" value="&lt;font face=&quot;Times New Roman&quot;&gt;&lt;i&gt;y&lt;/i&gt;&lt;sub&gt;2&lt;/sub&gt;&lt;/font&gt;" style="ellipse;whiteSpace=wrap;html=1;aspect=fixed;strokeColor=#007FFF;fillColor=#FFFF33;shadow=1;" parent="1" vertex="1">
          <mxGeometry x="250" y="575" width="30" height="30" as="geometry" />
        </mxCell>
        <mxCell id="asnv2eDRdn1GzaaLwiRC-118" style="edgeStyle=orthogonalEdgeStyle;rounded=0;orthogonalLoop=1;jettySize=auto;html=1;exitX=0.5;exitY=0;exitDx=0;exitDy=0;entryX=0.5;entryY=1;entryDx=0;entryDy=0;fontFamily=Times New Roman;" parent="1" source="asnv2eDRdn1GzaaLwiRC-65" target="asnv2eDRdn1GzaaLwiRC-70" edge="1">
          <mxGeometry relative="1" as="geometry" />
        </mxCell>
        <mxCell id="asnv2eDRdn1GzaaLwiRC-136" style="edgeStyle=orthogonalEdgeStyle;rounded=0;orthogonalLoop=1;jettySize=auto;html=1;exitX=1;exitY=0.5;exitDx=0;exitDy=0;entryX=0.5;entryY=1;entryDx=0;entryDy=0;fontFamily=Times New Roman;" parent="1" source="asnv2eDRdn1GzaaLwiRC-65" target="asnv2eDRdn1GzaaLwiRC-73" edge="1">
          <mxGeometry relative="1" as="geometry" />
        </mxCell>
        <mxCell id="asnv2eDRdn1GzaaLwiRC-65" value="&lt;font face=&quot;Times New Roman&quot;&gt;&lt;i&gt;y&lt;/i&gt;&lt;sub&gt;3&lt;/sub&gt;&lt;/font&gt;" style="ellipse;whiteSpace=wrap;html=1;aspect=fixed;strokeColor=#007FFF;fillColor=#FFFF33;shadow=1;" parent="1" vertex="1">
          <mxGeometry x="410" y="575" width="30" height="30" as="geometry" />
        </mxCell>
        <mxCell id="asnv2eDRdn1GzaaLwiRC-119" style="edgeStyle=orthogonalEdgeStyle;rounded=0;orthogonalLoop=1;jettySize=auto;html=1;exitX=0.5;exitY=0;exitDx=0;exitDy=0;entryX=0.5;entryY=1;entryDx=0;entryDy=0;fontFamily=Times New Roman;" parent="1" source="asnv2eDRdn1GzaaLwiRC-66" target="asnv2eDRdn1GzaaLwiRC-71" edge="1">
          <mxGeometry relative="1" as="geometry" />
        </mxCell>
        <mxCell id="asnv2eDRdn1GzaaLwiRC-120" style="edgeStyle=orthogonalEdgeStyle;rounded=0;orthogonalLoop=1;jettySize=auto;html=1;exitX=1;exitY=0.5;exitDx=0;exitDy=0;entryX=0.5;entryY=1;entryDx=0;entryDy=0;fontFamily=Times New Roman;" parent="1" source="asnv2eDRdn1GzaaLwiRC-66" target="asnv2eDRdn1GzaaLwiRC-74" edge="1">
          <mxGeometry relative="1" as="geometry" />
        </mxCell>
        <mxCell id="asnv2eDRdn1GzaaLwiRC-66" value="&lt;font face=&quot;Times New Roman&quot;&gt;&lt;i&gt;y&lt;/i&gt;&lt;sub&gt;n&lt;/sub&gt;&lt;/font&gt;" style="ellipse;whiteSpace=wrap;html=1;aspect=fixed;strokeColor=#007FFF;fillColor=#FFFF33;shadow=1;" parent="1" vertex="1">
          <mxGeometry x="610" y="575" width="30" height="30" as="geometry" />
        </mxCell>
        <mxCell id="asnv2eDRdn1GzaaLwiRC-89" value="" style="edgeStyle=orthogonalEdgeStyle;rounded=0;orthogonalLoop=1;jettySize=auto;html=1;fontFamily=Times New Roman;" parent="1" source="asnv2eDRdn1GzaaLwiRC-67" target="asnv2eDRdn1GzaaLwiRC-75" edge="1">
          <mxGeometry relative="1" as="geometry" />
        </mxCell>
        <mxCell id="asnv2eDRdn1GzaaLwiRC-67" value="&lt;font face=&quot;Times New Roman&quot;&gt;LSTM&lt;/font&gt;" style="rounded=0;whiteSpace=wrap;html=1;shadow=1;strokeColor=#007FFF;fillColor=#FFFFFF;" parent="1" vertex="1">
          <mxGeometry x="65" y="425" width="80" height="40" as="geometry" />
        </mxCell>
        <mxCell id="asnv2eDRdn1GzaaLwiRC-112" style="edgeStyle=orthogonalEdgeStyle;rounded=0;orthogonalLoop=1;jettySize=auto;html=1;exitX=0.5;exitY=0;exitDx=0;exitDy=0;entryX=0.5;entryY=1;entryDx=0;entryDy=0;fontFamily=Times New Roman;" parent="1" source="asnv2eDRdn1GzaaLwiRC-68" target="asnv2eDRdn1GzaaLwiRC-75" edge="1">
          <mxGeometry relative="1" as="geometry">
            <Array as="points">
              <mxPoint x="190" y="415" />
              <mxPoint x="105" y="415" />
            </Array>
          </mxGeometry>
        </mxCell>
        <mxCell id="asnv2eDRdn1GzaaLwiRC-113" style="edgeStyle=orthogonalEdgeStyle;rounded=0;orthogonalLoop=1;jettySize=auto;html=1;exitX=1;exitY=0.5;exitDx=0;exitDy=0;entryX=0;entryY=0.5;entryDx=0;entryDy=0;fontFamily=Times New Roman;" parent="1" source="asnv2eDRdn1GzaaLwiRC-68" target="asnv2eDRdn1GzaaLwiRC-72" edge="1">
          <mxGeometry relative="1" as="geometry" />
        </mxCell>
        <mxCell id="asnv2eDRdn1GzaaLwiRC-68" value="&lt;font face=&quot;Times New Roman&quot;&gt;LSTM&lt;/font&gt;" style="rounded=0;whiteSpace=wrap;html=1;shadow=1;strokeColor=#007FFF;fillColor=#FFFFFF;" parent="1" vertex="1">
          <mxGeometry x="150" y="495" width="80" height="40" as="geometry" />
        </mxCell>
        <mxCell id="asnv2eDRdn1GzaaLwiRC-124" style="edgeStyle=orthogonalEdgeStyle;rounded=0;orthogonalLoop=1;jettySize=auto;html=1;exitX=0.5;exitY=0;exitDx=0;exitDy=0;entryX=0.5;entryY=1;entryDx=0;entryDy=0;fontFamily=Times New Roman;" parent="1" source="asnv2eDRdn1GzaaLwiRC-69" target="asnv2eDRdn1GzaaLwiRC-90" edge="1">
          <mxGeometry relative="1" as="geometry" />
        </mxCell>
        <mxCell id="asnv2eDRdn1GzaaLwiRC-129" style="edgeStyle=orthogonalEdgeStyle;rounded=0;orthogonalLoop=1;jettySize=auto;html=1;exitX=0;exitY=0.5;exitDx=0;exitDy=0;entryX=1;entryY=0.5;entryDx=0;entryDy=0;fontFamily=Times New Roman;" parent="1" source="asnv2eDRdn1GzaaLwiRC-69" target="asnv2eDRdn1GzaaLwiRC-67" edge="1">
          <mxGeometry relative="1" as="geometry" />
        </mxCell>
        <mxCell id="asnv2eDRdn1GzaaLwiRC-69" value="&lt;font face=&quot;Times New Roman&quot;&gt;LSTM&lt;/font&gt;" style="rounded=0;whiteSpace=wrap;html=1;shadow=1;strokeColor=#007FFF;fillColor=#FFFFFF;" parent="1" vertex="1">
          <mxGeometry x="225" y="425" width="80" height="40" as="geometry" />
        </mxCell>
        <mxCell id="asnv2eDRdn1GzaaLwiRC-123" style="edgeStyle=orthogonalEdgeStyle;rounded=0;orthogonalLoop=1;jettySize=auto;html=1;exitX=0.5;exitY=0;exitDx=0;exitDy=0;entryX=0.5;entryY=1;entryDx=0;entryDy=0;fontFamily=Times New Roman;" parent="1" source="asnv2eDRdn1GzaaLwiRC-70" target="asnv2eDRdn1GzaaLwiRC-91" edge="1">
          <mxGeometry relative="1" as="geometry" />
        </mxCell>
        <mxCell id="asnv2eDRdn1GzaaLwiRC-128" style="edgeStyle=orthogonalEdgeStyle;rounded=0;orthogonalLoop=1;jettySize=auto;html=1;exitX=0;exitY=0.5;exitDx=0;exitDy=0;entryX=1;entryY=0.5;entryDx=0;entryDy=0;fontFamily=Times New Roman;" parent="1" source="asnv2eDRdn1GzaaLwiRC-70" target="asnv2eDRdn1GzaaLwiRC-69" edge="1">
          <mxGeometry relative="1" as="geometry" />
        </mxCell>
        <mxCell id="asnv2eDRdn1GzaaLwiRC-70" value="&lt;font face=&quot;Times New Roman&quot;&gt;LSTM&lt;/font&gt;" style="rounded=0;whiteSpace=wrap;html=1;shadow=1;strokeColor=#007FFF;fillColor=#FFFFFF;" parent="1" vertex="1">
          <mxGeometry x="385" y="425" width="80" height="40" as="geometry" />
        </mxCell>
        <mxCell id="asnv2eDRdn1GzaaLwiRC-122" style="edgeStyle=orthogonalEdgeStyle;rounded=0;orthogonalLoop=1;jettySize=auto;html=1;exitX=0.5;exitY=0;exitDx=0;exitDy=0;entryX=0.5;entryY=1;entryDx=0;entryDy=0;fontFamily=Times New Roman;" parent="1" source="asnv2eDRdn1GzaaLwiRC-71" target="asnv2eDRdn1GzaaLwiRC-78" edge="1">
          <mxGeometry relative="1" as="geometry" />
        </mxCell>
        <mxCell id="asnv2eDRdn1GzaaLwiRC-130" style="edgeStyle=orthogonalEdgeStyle;rounded=0;orthogonalLoop=1;jettySize=auto;html=1;exitX=0;exitY=0.5;exitDx=0;exitDy=0;fontFamily=Times New Roman;dashed=1;" parent="1" source="asnv2eDRdn1GzaaLwiRC-71" target="asnv2eDRdn1GzaaLwiRC-70" edge="1">
          <mxGeometry relative="1" as="geometry" />
        </mxCell>
        <mxCell id="asnv2eDRdn1GzaaLwiRC-71" value="&lt;font face=&quot;Times New Roman&quot;&gt;LSTM&lt;/font&gt;" style="rounded=0;whiteSpace=wrap;html=1;shadow=1;strokeColor=#007FFF;fillColor=#FFFFFF;" parent="1" vertex="1">
          <mxGeometry x="585" y="425" width="80" height="40" as="geometry" />
        </mxCell>
        <mxCell id="asnv2eDRdn1GzaaLwiRC-116" style="edgeStyle=orthogonalEdgeStyle;rounded=0;orthogonalLoop=1;jettySize=auto;html=1;exitX=1;exitY=0.5;exitDx=0;exitDy=0;fontFamily=Times New Roman;" parent="1" source="asnv2eDRdn1GzaaLwiRC-72" target="asnv2eDRdn1GzaaLwiRC-73" edge="1">
          <mxGeometry relative="1" as="geometry" />
        </mxCell>
        <mxCell id="asnv2eDRdn1GzaaLwiRC-125" style="edgeStyle=orthogonalEdgeStyle;rounded=0;orthogonalLoop=1;jettySize=auto;html=1;exitX=0.5;exitY=0;exitDx=0;exitDy=0;entryX=0.5;entryY=1;entryDx=0;entryDy=0;fontFamily=Times New Roman;" parent="1" source="asnv2eDRdn1GzaaLwiRC-72" target="asnv2eDRdn1GzaaLwiRC-90" edge="1">
          <mxGeometry relative="1" as="geometry">
            <Array as="points">
              <mxPoint x="350" y="415" />
              <mxPoint x="265" y="415" />
            </Array>
          </mxGeometry>
        </mxCell>
        <mxCell id="asnv2eDRdn1GzaaLwiRC-72" value="&lt;font face=&quot;Times New Roman&quot;&gt;LSTM&lt;/font&gt;" style="rounded=0;whiteSpace=wrap;html=1;shadow=1;strokeColor=#007FFF;fillColor=#FFFFFF;" parent="1" vertex="1">
          <mxGeometry x="310" y="495" width="80" height="40" as="geometry" />
        </mxCell>
        <mxCell id="asnv2eDRdn1GzaaLwiRC-117" style="edgeStyle=orthogonalEdgeStyle;rounded=0;orthogonalLoop=1;jettySize=auto;html=1;exitX=1;exitY=0.5;exitDx=0;exitDy=0;entryX=0;entryY=0.5;entryDx=0;entryDy=0;fontFamily=Times New Roman;dashed=1;" parent="1" source="asnv2eDRdn1GzaaLwiRC-73" target="asnv2eDRdn1GzaaLwiRC-74" edge="1">
          <mxGeometry relative="1" as="geometry" />
        </mxCell>
        <mxCell id="asnv2eDRdn1GzaaLwiRC-126" style="edgeStyle=orthogonalEdgeStyle;rounded=0;orthogonalLoop=1;jettySize=auto;html=1;exitX=0.5;exitY=0;exitDx=0;exitDy=0;entryX=0.5;entryY=1;entryDx=0;entryDy=0;fontFamily=Times New Roman;" parent="1" source="asnv2eDRdn1GzaaLwiRC-73" target="asnv2eDRdn1GzaaLwiRC-91" edge="1">
          <mxGeometry relative="1" as="geometry">
            <Array as="points">
              <mxPoint x="510" y="415" />
              <mxPoint x="425" y="415" />
            </Array>
          </mxGeometry>
        </mxCell>
        <mxCell id="asnv2eDRdn1GzaaLwiRC-73" value="&lt;font face=&quot;Times New Roman&quot;&gt;LSTM&lt;/font&gt;" style="rounded=0;whiteSpace=wrap;html=1;shadow=1;strokeColor=#007FFF;fillColor=#FFFFFF;" parent="1" vertex="1">
          <mxGeometry x="470" y="495" width="80" height="40" as="geometry" />
        </mxCell>
        <mxCell id="asnv2eDRdn1GzaaLwiRC-127" style="edgeStyle=orthogonalEdgeStyle;rounded=0;orthogonalLoop=1;jettySize=auto;html=1;exitX=0.5;exitY=0;exitDx=0;exitDy=0;entryX=0.5;entryY=1;entryDx=0;entryDy=0;fontFamily=Times New Roman;" parent="1" source="asnv2eDRdn1GzaaLwiRC-74" target="asnv2eDRdn1GzaaLwiRC-78" edge="1">
          <mxGeometry relative="1" as="geometry">
            <Array as="points">
              <mxPoint x="705" y="415" />
              <mxPoint x="625" y="415" />
            </Array>
          </mxGeometry>
        </mxCell>
        <mxCell id="asnv2eDRdn1GzaaLwiRC-74" value="&lt;font face=&quot;Times New Roman&quot;&gt;LSTM&lt;/font&gt;" style="rounded=0;whiteSpace=wrap;html=1;shadow=1;strokeColor=#007FFF;fillColor=#FFFFFF;" parent="1" vertex="1">
          <mxGeometry x="665" y="495" width="80" height="40" as="geometry" />
        </mxCell>
        <mxCell id="asnv2eDRdn1GzaaLwiRC-131" style="rounded=0;orthogonalLoop=1;jettySize=auto;html=1;exitX=0.5;exitY=0;exitDx=0;exitDy=0;entryX=0.5;entryY=1;entryDx=0;entryDy=0;fontFamily=Times New Roman;edgeStyle=orthogonalEdgeStyle;" parent="1" source="asnv2eDRdn1GzaaLwiRC-75" target="asnv2eDRdn1GzaaLwiRC-80" edge="1">
          <mxGeometry relative="1" as="geometry" />
        </mxCell>
        <mxCell id="asnv2eDRdn1GzaaLwiRC-75" value="&lt;font face=&quot;Times New Roman&quot;&gt;&lt;i&gt;h&lt;/i&gt;&lt;span style=&quot;font-size: 10px&quot;&gt;&lt;sub&gt;1&lt;/sub&gt;&lt;/span&gt;&lt;/font&gt;" style="ellipse;whiteSpace=wrap;html=1;aspect=fixed;strokeColor=#007FFF;fillColor=#FFFF33;shadow=1;" parent="1" vertex="1">
          <mxGeometry x="90" y="353" width="30" height="30" as="geometry" />
        </mxCell>
        <mxCell id="asnv2eDRdn1GzaaLwiRC-134" style="edgeStyle=orthogonalEdgeStyle;rounded=0;orthogonalLoop=1;jettySize=auto;html=1;exitX=0.5;exitY=0;exitDx=0;exitDy=0;fontFamily=Times New Roman;entryX=0.5;entryY=1;entryDx=0;entryDy=0;" parent="1" source="asnv2eDRdn1GzaaLwiRC-78" target="asnv2eDRdn1GzaaLwiRC-80" edge="1">
          <mxGeometry relative="1" as="geometry">
            <mxPoint x="510" y="305" as="targetPoint" />
            <Array as="points">
              <mxPoint x="625" y="329" />
              <mxPoint x="376" y="329" />
            </Array>
          </mxGeometry>
        </mxCell>
        <mxCell id="asnv2eDRdn1GzaaLwiRC-78" value="&lt;i style=&quot;font-family: &amp;#34;times new roman&amp;#34;&quot;&gt;h&lt;/i&gt;&lt;span style=&quot;font-family: &amp;#34;times new roman&amp;#34; ; font-size: 10px&quot;&gt;&lt;sub&gt;n&lt;/sub&gt;&lt;/span&gt;" style="ellipse;whiteSpace=wrap;html=1;aspect=fixed;strokeColor=#007FFF;fillColor=#FFFF33;shadow=1;" parent="1" vertex="1">
          <mxGeometry x="610" y="353" width="30" height="30" as="geometry" />
        </mxCell>
        <mxCell id="asnv2eDRdn1GzaaLwiRC-79" value="" style="group" parent="1" vertex="1" connectable="0">
          <mxGeometry x="286" y="275" width="195" height="30" as="geometry" />
        </mxCell>
        <mxCell id="asnv2eDRdn1GzaaLwiRC-80" value="" style="rounded=1;whiteSpace=wrap;html=1;strokeColor=#007FFF;shadow=1;" parent="asnv2eDRdn1GzaaLwiRC-79" vertex="1">
          <mxGeometry width="180" height="30" as="geometry" />
        </mxCell>
        <mxCell id="asnv2eDRdn1GzaaLwiRC-81" value="" style="ellipse;whiteSpace=wrap;html=1;aspect=fixed;strokeColor=#007FFF;fillColor=#99CCFF;shadow=1;" parent="asnv2eDRdn1GzaaLwiRC-79" vertex="1">
          <mxGeometry x="19.5" y="5" width="20" height="20" as="geometry" />
        </mxCell>
        <mxCell id="asnv2eDRdn1GzaaLwiRC-82" value="" style="ellipse;whiteSpace=wrap;html=1;aspect=fixed;strokeColor=#007FFF;fillColor=#99CCFF;shadow=1;" parent="asnv2eDRdn1GzaaLwiRC-79" vertex="1">
          <mxGeometry x="78" y="5" width="20" height="20" as="geometry" />
        </mxCell>
        <mxCell id="asnv2eDRdn1GzaaLwiRC-83" value="" style="ellipse;whiteSpace=wrap;html=1;aspect=fixed;strokeColor=#007FFF;fillColor=#99CCFF;shadow=1;" parent="asnv2eDRdn1GzaaLwiRC-79" vertex="1">
          <mxGeometry x="136.5" y="5" width="20" height="20" as="geometry" />
        </mxCell>
        <mxCell id="asnv2eDRdn1GzaaLwiRC-86" value="" style="ellipse;whiteSpace=wrap;html=1;aspect=fixed;strokeColor=#007FFF;fillColor=#99CCFF;shadow=1;" parent="asnv2eDRdn1GzaaLwiRC-79" vertex="1">
          <mxGeometry x="49" y="5" width="20" height="20" as="geometry" />
        </mxCell>
        <mxCell id="asnv2eDRdn1GzaaLwiRC-87" value="" style="ellipse;whiteSpace=wrap;html=1;aspect=fixed;strokeColor=#007FFF;fillColor=#99CCFF;shadow=1;" parent="asnv2eDRdn1GzaaLwiRC-79" vertex="1">
          <mxGeometry x="105" y="5" width="20" height="20" as="geometry" />
        </mxCell>
        <mxCell id="asnv2eDRdn1GzaaLwiRC-132" style="edgeStyle=orthogonalEdgeStyle;rounded=0;orthogonalLoop=1;jettySize=auto;html=1;exitX=0.5;exitY=0;exitDx=0;exitDy=0;fontFamily=Times New Roman;entryX=0.5;entryY=1;entryDx=0;entryDy=0;" parent="1" source="asnv2eDRdn1GzaaLwiRC-90" target="asnv2eDRdn1GzaaLwiRC-80" edge="1">
          <mxGeometry relative="1" as="geometry">
            <mxPoint x="380" y="305" as="targetPoint" />
          </mxGeometry>
        </mxCell>
        <mxCell id="asnv2eDRdn1GzaaLwiRC-90" value="&lt;font face=&quot;Times New Roman&quot;&gt;&lt;i&gt;h&lt;/i&gt;&lt;span style=&quot;font-size: 10px&quot;&gt;&lt;sub&gt;2&lt;/sub&gt;&lt;/span&gt;&lt;/font&gt;" style="ellipse;whiteSpace=wrap;html=1;aspect=fixed;strokeColor=#007FFF;fillColor=#FFFF33;shadow=1;" parent="1" vertex="1">
          <mxGeometry x="250" y="353" width="30" height="30" as="geometry" />
        </mxCell>
        <mxCell id="asnv2eDRdn1GzaaLwiRC-133" style="edgeStyle=orthogonalEdgeStyle;rounded=0;orthogonalLoop=1;jettySize=auto;html=1;exitX=0.5;exitY=0;exitDx=0;exitDy=0;fontFamily=Times New Roman;entryX=0.5;entryY=1;entryDx=0;entryDy=0;" parent="1" source="asnv2eDRdn1GzaaLwiRC-91" target="asnv2eDRdn1GzaaLwiRC-80" edge="1">
          <mxGeometry relative="1" as="geometry">
            <mxPoint x="376" y="305" as="targetPoint" />
          </mxGeometry>
        </mxCell>
        <mxCell id="asnv2eDRdn1GzaaLwiRC-91" value="&lt;font face=&quot;Times New Roman&quot;&gt;&lt;i&gt;h&lt;/i&gt;&lt;span style=&quot;font-size: 10px&quot;&gt;&lt;sub&gt;3&lt;/sub&gt;&lt;/span&gt;&lt;/font&gt;" style="ellipse;whiteSpace=wrap;html=1;aspect=fixed;strokeColor=#007FFF;fillColor=#FFFF33;shadow=1;" parent="1" vertex="1">
          <mxGeometry x="410" y="353" width="30" height="30" as="geometry" />
        </mxCell>
        <mxCell id="asnv2eDRdn1GzaaLwiRC-103" style="edgeStyle=orthogonalEdgeStyle;rounded=0;orthogonalLoop=1;jettySize=auto;html=1;exitX=0.5;exitY=0;exitDx=0;exitDy=0;entryX=0.5;entryY=1;entryDx=0;entryDy=0;fontFamily=Times New Roman;shadow=0;" parent="1" source="asnv2eDRdn1GzaaLwiRC-28" target="asnv2eDRdn1GzaaLwiRC-53" edge="1">
          <mxGeometry relative="1" as="geometry" />
        </mxCell>
        <mxCell id="asnv2eDRdn1GzaaLwiRC-104" style="edgeStyle=orthogonalEdgeStyle;rounded=0;orthogonalLoop=1;jettySize=auto;html=1;exitX=0.5;exitY=0;exitDx=0;exitDy=0;entryX=0.5;entryY=1;entryDx=0;entryDy=0;fontFamily=Times New Roman;shadow=0;" parent="1" source="asnv2eDRdn1GzaaLwiRC-22" target="asnv2eDRdn1GzaaLwiRC-48" edge="1">
          <mxGeometry relative="1" as="geometry" />
        </mxCell>
        <mxCell id="asnv2eDRdn1GzaaLwiRC-105" style="edgeStyle=orthogonalEdgeStyle;rounded=0;orthogonalLoop=1;jettySize=auto;html=1;exitX=0.5;exitY=0;exitDx=0;exitDy=0;entryX=0.5;entryY=1;entryDx=0;entryDy=0;fontFamily=Times New Roman;shadow=0;" parent="1" source="asnv2eDRdn1GzaaLwiRC-17" target="asnv2eDRdn1GzaaLwiRC-43" edge="1">
          <mxGeometry relative="1" as="geometry" />
        </mxCell>
        <mxCell id="asnv2eDRdn1GzaaLwiRC-106" style="edgeStyle=orthogonalEdgeStyle;rounded=0;orthogonalLoop=1;jettySize=auto;html=1;exitX=0.5;exitY=0;exitDx=0;exitDy=0;entryX=0.5;entryY=1;entryDx=0;entryDy=0;fontFamily=Times New Roman;shadow=0;" parent="1" source="asnv2eDRdn1GzaaLwiRC-9" target="asnv2eDRdn1GzaaLwiRC-38" edge="1">
          <mxGeometry relative="1" as="geometry" />
        </mxCell>
        <mxCell id="asnv2eDRdn1GzaaLwiRC-107" style="edgeStyle=orthogonalEdgeStyle;rounded=0;orthogonalLoop=1;jettySize=auto;html=1;exitX=0.5;exitY=0;exitDx=0;exitDy=0;entryX=0.5;entryY=1;entryDx=0;entryDy=0;fontFamily=Times New Roman;shadow=0;" parent="1" source="asnv2eDRdn1GzaaLwiRC-38" target="asnv2eDRdn1GzaaLwiRC-63" edge="1">
          <mxGeometry relative="1" as="geometry" />
        </mxCell>
        <mxCell id="asnv2eDRdn1GzaaLwiRC-108" style="edgeStyle=orthogonalEdgeStyle;rounded=0;orthogonalLoop=1;jettySize=auto;html=1;exitX=0.5;exitY=0;exitDx=0;exitDy=0;entryX=0.5;entryY=1;entryDx=0;entryDy=0;fontFamily=Times New Roman;shadow=0;" parent="1" source="asnv2eDRdn1GzaaLwiRC-43" target="asnv2eDRdn1GzaaLwiRC-64" edge="1">
          <mxGeometry relative="1" as="geometry" />
        </mxCell>
        <mxCell id="asnv2eDRdn1GzaaLwiRC-109" style="edgeStyle=orthogonalEdgeStyle;rounded=0;orthogonalLoop=1;jettySize=auto;html=1;exitX=0.5;exitY=0;exitDx=0;exitDy=0;entryX=0.5;entryY=1;entryDx=0;entryDy=0;fontFamily=Times New Roman;shadow=0;" parent="1" source="asnv2eDRdn1GzaaLwiRC-48" target="asnv2eDRdn1GzaaLwiRC-65" edge="1">
          <mxGeometry relative="1" as="geometry" />
        </mxCell>
        <mxCell id="asnv2eDRdn1GzaaLwiRC-110" style="edgeStyle=orthogonalEdgeStyle;rounded=0;orthogonalLoop=1;jettySize=auto;html=1;exitX=0.5;exitY=0;exitDx=0;exitDy=0;entryX=0.5;entryY=1;entryDx=0;entryDy=0;fontFamily=Times New Roman;shadow=0;" parent="1" source="asnv2eDRdn1GzaaLwiRC-53" target="asnv2eDRdn1GzaaLwiRC-66" edge="1">
          <mxGeometry relative="1" as="geometry" />
        </mxCell>
        <mxCell id="asnv2eDRdn1GzaaLwiRC-135" value="Y" style="ellipse;whiteSpace=wrap;html=1;aspect=fixed;shadow=1;fontFamily=Times New Roman;strokeColor=#007FFF;fillColor=#66CC00;" parent="1" vertex="1">
          <mxGeometry x="354" y="205" width="40" height="40" as="geometry" />
        </mxCell>
        <mxCell id="asnv2eDRdn1GzaaLwiRC-137" style="edgeStyle=orthogonalEdgeStyle;rounded=0;orthogonalLoop=1;jettySize=auto;html=1;exitX=0.5;exitY=0;exitDx=0;exitDy=0;entryX=0.5;entryY=1;entryDx=0;entryDy=0;fontFamily=Times New Roman;" parent="1" source="asnv2eDRdn1GzaaLwiRC-82" target="asnv2eDRdn1GzaaLwiRC-135" edge="1">
          <mxGeometry relative="1" as="geometry" />
        </mxCell>
        <mxCell id="asnv2eDRdn1GzaaLwiRC-144" value="" style="endArrow=none;dashed=1;html=1;rounded=0;shadow=1;fontFamily=Times New Roman;" parent="1" edge="1">
          <mxGeometry width="50" height="50" relative="1" as="geometry">
            <mxPoint x="14.000000000000114" y="629" as="sourcePoint" />
            <mxPoint x="795" y="629" as="targetPoint" />
          </mxGeometry>
        </mxCell>
        <mxCell id="asnv2eDRdn1GzaaLwiRC-145" value="" style="endArrow=none;dashed=1;html=1;rounded=0;shadow=1;fontFamily=Times New Roman;" parent="1" edge="1">
          <mxGeometry width="50" height="50" relative="1" as="geometry">
            <mxPoint x="12.000000000000114" y="401" as="sourcePoint" />
            <mxPoint x="793" y="401" as="targetPoint" />
          </mxGeometry>
        </mxCell>
        <mxCell id="asnv2eDRdn1GzaaLwiRC-146" value="" style="endArrow=none;dashed=1;html=1;rounded=0;shadow=1;fontFamily=Times New Roman;" parent="1" edge="1">
          <mxGeometry width="50" height="50" relative="1" as="geometry">
            <mxPoint x="13.000000000000114" y="264" as="sourcePoint" />
            <mxPoint x="794.0000000000002" y="264" as="targetPoint" />
          </mxGeometry>
        </mxCell>
        <mxCell id="asnv2eDRdn1GzaaLwiRC-147" value="&lt;font style=&quot;font-size: 16px&quot;&gt;Attetion Layer&lt;/font&gt;" style="text;html=1;align=center;verticalAlign=middle;resizable=0;points=[];autosize=1;strokeColor=none;fillColor=none;fontFamily=Times New Roman;" parent="1" vertex="1">
          <mxGeometry x="698" y="374" width="104" height="19" as="geometry" />
        </mxCell>
        <mxCell id="asnv2eDRdn1GzaaLwiRC-148" value="&lt;font style=&quot;font-size: 16px&quot;&gt;Output Layer&lt;/font&gt;" style="text;html=1;align=center;verticalAlign=middle;resizable=0;points=[];autosize=1;strokeColor=none;fillColor=none;fontFamily=Times New Roman;" parent="1" vertex="1">
          <mxGeometry x="702" y="236" width="96" height="19" as="geometry" />
        </mxCell>
        <mxCell id="asnv2eDRdn1GzaaLwiRC-149" value="&lt;font style=&quot;font-size: 16px&quot;&gt;Bi-LSTM Layer&lt;/font&gt;" style="text;html=1;align=center;verticalAlign=middle;resizable=0;points=[];autosize=1;strokeColor=none;fillColor=none;fontFamily=Times New Roman;" parent="1" vertex="1">
          <mxGeometry x="683" y="605" width="115" height="19" as="geometry" />
        </mxCell>
        <mxCell id="asnv2eDRdn1GzaaLwiRC-151" value="&lt;font style=&quot;font-size: 16px&quot;&gt;CNN Layer&lt;/font&gt;" style="text;html=1;align=center;verticalAlign=middle;resizable=0;points=[];autosize=1;strokeColor=none;fillColor=none;fontFamily=Times New Roman;" parent="1" vertex="1">
          <mxGeometry x="713" y="735" width="85" height="19" as="geometry" />
        </mxCell>
        <mxCell id="asnv2eDRdn1GzaaLwiRC-152" value="&lt;font style=&quot;font-size: 16px&quot;&gt;Input Layer&lt;/font&gt;" style="text;html=1;align=center;verticalAlign=middle;resizable=0;points=[];autosize=1;strokeColor=none;fillColor=none;fontFamily=Times New Roman;" parent="1" vertex="1">
          <mxGeometry x="713" y="780.5" width="85" height="19" as="geometry" />
        </mxCell>
      </root>
    </mxGraphModel>
  </diagram>
</mxfile>
